<svg width="24" height="24" viewBox="0 0 24 24" fill="none" xmlns="http://www.w3.org/2000/svg">
<g clip-path="url(#clip0_521_429)">
<path d="M3 19L13.2885 5H21.0192L18.2115 19H3ZM14.2885 13.3846C14.8087 13.3846 15.2561 13.2032 15.6306 12.8403C16.0051 12.4774 16.1923 12.0332 16.1923 11.5076C16.1923 10.9692 16.0051 10.5192 15.6306 10.1577C15.2561 9.79615 14.8087 9.61538 14.2885 9.61538C13.779 9.61538 13.3407 9.79493 12.9736 10.154C12.6066 10.5131 12.4231 10.9638 12.4231 11.506C12.4231 12.0353 12.6066 12.4808 12.9736 12.8423C13.3407 13.2038 13.779 13.3846 14.2885 13.3846Z" fill="white"/>
</g>
<defs>
<clipPath id="clip0_521_429">
<rect width="24" height="24" fill="white"/>
</clipPath>
</defs>
</svg>
