<svg width="24" height="24" viewBox="0 0 24 24" fill="none" xmlns="http://www.w3.org/2000/svg">
<g clip-path="url(#clip0_521_409)">
<path d="M21.3321 8.46514H22.0314L23.9999 4.57897L22.4855 2.78177H21.3942V1.47333H22.1723C22.3104 1.47333 22.4223 1.36124 22.4223 1.22317C22.4223 1.08511 22.3104 0.973145 22.1723 0.973145H20.1928C20.0546 0.973145 19.9427 1.08511 19.9427 1.22317C19.9427 1.36124 20.0546 1.47333 20.1928 1.47333H20.9709V2.78177H16.2863L14.7717 4.57897L16.7403 8.46514H17.4396V12.6212H11.1424V10.5117H2.35841V12.6212H0V23.027H2.96401V17.8355H6.70705V23.027H23.3673V12.6212H21.3321V8.46514ZM17.3939 7.48086L16.4514 5.56325H18.2786V7.48086H17.3939ZM6.96669 15.6503H1.94701V14.1358H6.96669V15.6503ZM12.9383 15.6503H7.91865V14.1358H12.9383V15.6503ZM18.91 15.6503H13.8903V14.1358H18.91V15.6503ZM20.0831 7.48086H18.6887V5.56325H20.0831V7.48086ZM20.4933 5.56325H22.3206L21.378 7.48086H20.4932V5.56325H20.4933Z" fill="white"/>
</g>
<defs>
<clipPath id="clip0_521_409">
<rect width="24" height="24" fill="white"/>
</clipPath>
</defs>
</svg>
