<svg width="24" height="24" viewBox="0 0 24 24" fill="none" xmlns="http://www.w3.org/2000/svg">
<path d="M7.46108 20H5.8457V6.38463H9.61493V3H14.3842V6.38463H18.1534V20H16.538V20.2308C16.538 20.4372 16.4614 20.617 16.3082 20.7702C16.155 20.9234 15.9752 21 15.7688 21C15.5624 21 15.3826 20.9234 15.2294 20.7702C15.0762 20.617 14.9996 20.4372 14.9996 20.2308V20H8.99955V20.2308C8.99955 20.4372 8.92295 20.617 8.76975 20.7702C8.61654 20.9234 8.43673 21 8.23033 21C8.02391 21 7.8441 20.9234 7.6909 20.7702C7.53769 20.617 7.46108 20.4372 7.46108 20.2308V20ZM9.61493 17.2308H10.6149V9.15385H9.61493V17.2308ZM13.3842 17.2308H14.3842V9.15385H13.3842V17.2308ZM10.6149 6.38463H13.3842V4H10.6149V6.38463Z" fill="white"/>
</svg>
