<svg width="24" height="24" viewBox="0 0 24 24" fill="none" xmlns="http://www.w3.org/2000/svg">
<path d="M7.95572 18.9829H5.90723V21.0406H7.95572V18.9829Z" fill="white"/>
<path d="M18.0905 18.9829H16.042V21.0406H18.0905V18.9829Z" fill="white"/>
<path d="M16.0427 18.5447H18.0912V12.7496C18.0912 10.8792 16.732 9.37979 14.8931 9.37979H14.0304L12.5647 11.6221V9.28711H11.5222V11.588L10.0464 9.3796H9.10759C7.26826 9.3796 5.9082 10.8792 5.9082 12.7494V18.5445H7.9567V12.963H8.6082V21.0509H15.3924V12.963H16.0428L16.0427 18.5447ZM12.0432 16.6361C11.7463 16.6361 11.5057 16.3955 11.5057 16.0992C11.5057 15.8022 11.7463 15.5616 12.0432 15.5616C12.3396 15.5616 12.5802 15.8022 12.5802 16.0992C12.5802 16.3955 12.3396 16.6361 12.0432 16.6361ZM12.0432 14.1682C11.7463 14.1682 11.5057 13.9276 11.5057 13.6311C11.5057 13.3344 11.7463 13.0937 12.0432 13.0937C12.3396 13.0937 12.5802 13.3344 12.5802 13.6311C12.5802 13.9276 12.3396 14.1682 12.0432 14.1682Z" fill="white"/>
<path d="M11.977 6.8274L9.87168 5.65415C9.74134 5.94473 9.66602 6.26504 9.66602 6.604C9.66602 7.89409 10.7087 8.93885 12.0008 8.93885C13.2895 8.93885 14.3329 7.89409 14.3329 6.604C14.3329 6.25747 14.2522 5.93089 14.1167 5.63477L11.977 6.8274Z" fill="white"/>
<path d="M13.0863 2.95361H10.866L9.75586 5.01651L11.976 6.25435L14.1964 5.01651L13.0863 2.95361ZM11.9991 5.35454H11.9982L11.0993 4.42629H12.8984L11.9991 5.35454Z" fill="white"/>
</svg>
