<svg width="24" height="24" viewBox="0 0 24 24" fill="none" xmlns="http://www.w3.org/2000/svg">
<path d="M18.9579 19.9999L13.406 14.448L14.4675 13.3865L20.0194 18.9384L18.9579 19.9999ZM5.06177 19.9999L4.00022 18.9384L10.9579 11.9807L7.9887 9.03069L7.44252 9.57684L6.49445 8.60954V10.4095L5.9483 10.9557L3.32715 8.33454L3.8733 7.78839H5.6733L4.71175 6.84607L6.87715 4.68069C7.10792 4.44991 7.36048 4.27875 7.63485 4.16722C7.9092 4.05568 8.20151 3.99992 8.51177 3.99992C8.82202 3.99992 9.11433 4.05568 9.3887 4.16722C9.66305 4.27875 9.91561 4.44991 10.1464 4.68069L8.50022 6.32684L9.59637 7.42299L9.05022 7.96914L12.0194 10.9191L14.5771 8.36144C14.4207 8.13966 14.3121 7.91274 14.2512 7.68069C14.1903 7.44864 14.1598 7.19415 14.1598 6.91722C14.1598 6.10055 14.4429 5.40921 15.0089 4.84319C15.5749 4.27716 16.2663 3.99414 17.0829 3.99414C17.256 3.99414 17.423 4.00632 17.5839 4.03069C17.7448 4.05504 17.9034 4.1044 18.0598 4.17877L15.9887 6.24992L17.7502 8.01144L19.8214 5.94029C19.8996 6.09671 19.9499 6.25537 19.9723 6.41627C19.9948 6.57717 20.006 6.74415 20.006 6.91722C20.006 7.73388 19.723 8.42523 19.1569 8.99127C18.5909 9.55728 17.8996 9.84029 17.0829 9.84029C16.806 9.84029 16.5515 9.81081 16.3194 9.75184C16.0874 9.69288 15.8605 9.58326 15.6387 9.42299L5.06177 19.9999Z" fill="white"/>
</svg>
