<svg width="24" height="24" viewBox="0 0 24 24" fill="none" xmlns="http://www.w3.org/2000/svg">
<path d="M3 19V14.8077C3.58845 14.5897 4.0689 14.2273 4.44135 13.7202C4.81378 13.2132 5 12.6398 5 12C5 11.3603 4.81378 10.7869 4.44135 10.2798C4.0689 9.77275 3.58845 9.41026 3 9.19232V5H21V19H3ZM8.92692 15.4192L17.6346 13.1077C17.859 13.0539 18.0369 12.9317 18.1683 12.7413C18.2997 12.551 18.3385 12.35 18.2846 12.1384C18.2308 11.9269 18.1042 11.7779 17.9048 11.6913C17.7055 11.6048 17.5 11.5884 17.2885 11.6423L14.7615 12.3308L10.7616 8.58078L9.7077 8.81537L12.1077 13.0154L9.36155 13.6923L8.11155 12.7423L7.5077 12.9154L8.92692 15.4192Z" fill="white"/>
</svg>
